<?xml version="1.0" encoding="utf-8"?>
<!-- Generator: Adobe Illustrator 24.3.2, SVG Export Plug-In . SVG Version: 6.00 Build 0)  -->
<svg version="1.2" baseProfile="tiny" id="Layer_1" xmlns="http://www.w3.org/2000/svg" xmlns:xlink="http://www.w3.org/1999/xlink"
	 x="0px" y="0px" viewBox="0 0 712.8 720" overflow="visible" xml:space="preserve">
<g>
	<g>
		<path fill="#5BA69C" d="M391.25,145.39c-6.68,0.24-14.96,1.13-24.85,2.68c-9.89,1.55-18.3,3.52-25.21,5.9
			c-8.11,2.86-13.59,7.63-16.45,14.3c-2.86,6.68-4.29,13.94-4.29,21.81v300.68c0,15.73-3.16,32.42-9.47,50.05
			c-6.32,17.64-15.55,33.37-27.71,47.19c-14.07,16.21-30.81,28.84-50.23,37.9c-19.43,9.05-41.65,13.59-66.68,13.59
			c-38.85,0-70.38-10.91-94.57-32.71c-24.19-21.81-36.29-51.18-36.29-88.13c0-16.21,4.17-30.57,12.51-43.08
			c8.34-12.51,20.5-18.77,36.47-18.77c14.3,0,25.8,3.99,34.5,11.98c8.7,7.99,13.05,18.54,13.05,31.64c0,7.63-1.55,15.26-4.65,22.88
			c-3.1,7.63-6.56,14.42-10.37,20.38c-3.58,5.49-7.63,11.92-12.16,19.31c-4.53,7.39-7.75,14.07-9.65,20.02
			c5.01,7.87,12.81,14.78,23.42,20.74c10.6,5.96,24.85,8.94,42.72,8.94c17.4,0,31.64-3.99,42.72-11.98
			c11.08-7.98,19.36-18.65,24.85-32c5.24-12.39,8.99-27.65,11.26-45.76c2.26-18.11,3.4-38.37,3.4-60.78v-268.5
			c0-8.34-1.37-15.31-4.11-20.92c-2.74-5.6-8.4-10.55-16.98-14.84c-7.39-3.81-16.62-6.73-27.71-8.76
			c-11.08-2.02-20.2-3.27-27.35-3.75V120h223.81V145.39z"/>
	</g>
	<g>
		<path fill="#5BA69C" d="M321.55,120h223.81v25.38c-7.15,0.48-16.27,1.73-27.35,3.75c-11.08,2.03-20.32,4.95-27.71,8.76
			c-8.58,4.29-14.24,9.24-16.98,14.84c-2.74,5.6-4.11,12.57-4.11,20.92v268.5c0,22.41,1.13,42.67,3.4,60.78
			c2.27,18.12,6.02,33.37,11.26,45.76c5.49,13.35,13.76,24.02,24.85,32c11.08,7.99,25.33,11.98,42.72,11.98
			c17.88,0,32.12-2.98,42.72-8.94c10.61-5.96,18.41-12.87,23.42-20.74c-1.91-5.96-5.12-12.63-9.65-20.02
			c-4.53-7.39-8.58-13.82-12.16-19.31c-3.81-5.96-7.27-12.75-10.37-20.38c-3.09-7.63-4.65-15.25-4.65-22.88
			c0-13.11,4.35-23.65,13.05-31.64c8.7-7.98,20.2-11.98,34.5-11.98c15.97,0,28.13,6.26,36.47,18.77
			c8.35,12.51,12.51,26.88,12.51,43.08c0,36.95-12.09,66.32-36.29,88.13c-24.19,21.81-55.71,32.71-94.57,32.71
			c-25.03,0-47.25-4.53-66.68-13.59c-19.42-9.06-36.17-21.69-50.23-37.9c-12.16-13.82-21.39-29.55-27.71-47.19
			c-6.31-17.64-9.47-34.32-9.47-50.05V190.08c0-7.87-1.43-15.13-4.29-21.81c-2.86-6.67-8.34-11.44-16.45-14.3
			c-6.91-2.38-15.31-4.35-25.21-5.9c-9.89-1.55-18.17-2.44-24.85-2.68V120z"/>
	</g>
</g>
<g>
</g>
<g>
</g>
<g>
</g>
<g>
</g>
<g>
</g>
<g>
</g>
</svg>
